<svg xmlns="http://www.w3.org/2000/svg" viewBox="0 0 256 240" shape-rendering="crispEdges">
  <rect width="256" height="240" fill="#000"/>
  <g fill="#9b9b9b">
    <rect x="12" y="30" width="2" height="2"/><rect x="56" y="16" width="2" height="2"/>
    <rect x="108" y="40" width="2" height="2"/><rect x="178" y="18" width="2" height="2"/>
    <rect x="236" y="54" width="2" height="2"/><rect x="30" y="112" width="2" height="2"/>
    <rect x="212" y="102" width="2" height="2"/><rect x="84" y="172" width="2" height="2"/>
    <rect x="232" y="206" width="2" height="2"/>
  </g>
  <text x="8" y="18" fill="#ff754f" font-family="monospace" font-size="8" font-weight="bold" letter-spacing="2">SCORE: 0375</text>
  <g fill="#72e600" stroke="#d4ff9d" stroke-width="1">
    <circle cx="76" cy="164" r="5"/><circle cx="88" cy="164" r="5"/><circle cx="100" cy="164" r="5"/>
    <circle cx="112" cy="164" r="5"/><circle cx="124" cy="164" r="5"/><circle cx="136" cy="164" r="5"/>
    <circle cx="148" cy="164" r="5"/><circle cx="160" cy="164" r="5"/>
    <circle cx="160" cy="176" r="5"/><circle cx="160" cy="188" r="5"/>
  </g>
  <g fill="#ff9d00" stroke="#ffe3a1" stroke-width="1">
    <circle cx="188" cy="116" r="5"/><circle cx="188" cy="108" r="2"/><circle cx="196" cy="116" r="2"/><circle cx="188" cy="124" r="2"/>
  </g>
  <text x="8" y="232" fill="#ff754f" font-family="monospace" font-size="7" letter-spacing="2">LEVEL: 02</text>
</svg>
